<?xml version="1.0" encoding="utf-8" ?>
<svg xmlns="http://www.w3.org/2000/svg" xmlns:xlink="http://www.w3.org/1999/xlink" width="1024" height="1024">
	<path d="M532.507 87.7406C553.906 75.0826 579.753 63.3185 603.193 54.8167C613.298 51.1516 635.516 43.1418 645.132 47.9751C649.881 50.362 652.476 55.1673 653.953 60.074C661.497 85.1377 648.516 126.054 636.248 148.567C640.081 153.519 643.383 159.295 645.473 165.21C648.213 172.964 647.575 182.268 643.923 189.645C634.155 209.381 602.525 229.764 581.842 237.548C571.528 241.429 560.627 243.326 550.202 246.852C551.072 253.348 551.772 259.945 552.866 266.402C553.315 269.058 553.054 271.191 552.654 273.823C553.261 274.683 553.65 275.636 553.806 276.679C554.243 279.605 555.274 288.578 554.708 290.975C554.602 291.428 554.018 292.153 553.745 292.514C553.632 292.663 553.515 292.808 553.4 292.955C553.647 293.398 553.87 293.856 554.137 294.288C554.528 294.923 554.879 295.243 555.028 295.99C555.289 297.292 556.553 312.359 556.536 314.017C556.039 314.921 555.571 315.704 555.323 316.713C556.458 317.407 555.969 316.974 556.793 318.009C557.073 321.361 557.601 324.384 555.956 327.464L558.4 332.632L555.953 337.355C556.918 338.45 557.927 339.523 558.665 340.79C558.805 341.031 558.998 341.251 559.077 341.518C559.137 341.724 559.07 341.947 559.067 342.162C559.045 343.654 557.372 343.578 557.48 345.215C557.632 347.516 559.551 349.233 558.887 351.729L557.094 352.223C557.686 353.278 557.377 352.914 558.26 353.74C558.466 353.932 558.681 354.116 558.892 354.304C558.502 364.564 561.124 375.068 562.588 385.16C565.685 406.51 569.086 427.765 572.711 449.033C574.103 457.201 574.947 465.465 576.408 473.622L581.81 503.347C582.361 506.249 583.357 509.131 583.807 512.025C584.044 513.552 583.099 514.676 583.427 516.353C584.278 520.696 585.731 524.955 586.679 529.292C588.057 535.6 588.896 542.028 590.179 548.359C591.351 554.143 592.996 559.98 592.931 565.915L592.909 567.981L592.895 568.71L593.747 568.8C595.417 571.715 595.459 579.467 596.252 583.219C598.007 591.515 600.115 599.731 601.726 608.059C603.156 615.456 604.141 622.939 605.653 630.319C607.13 637.523 609.29 644.611 610.582 651.85C611.995 659.768 612.266 667.882 613.763 675.787C616.023 687.726 619.124 699.525 621.063 711.525C622.09 717.881 621.905 724.352 622.969 730.706C623.534 731.37 624.281 732.134 624.68 732.905C625.807 735.083 624.614 739.39 625.079 741.924C625.687 745.236 628.242 746.995 627.049 750.675C626.779 751.508 626.575 752.348 626.356 753.196C627.451 754.936 628.282 756.54 628.951 758.489L629.137 759.049L627.879 765.66C628.192 766.349 628.491 767.048 628.814 767.732C629.535 769.256 629.954 769.894 629.66 771.672C629.261 772.142 628.363 773.009 628.37 773.668C628.388 775.39 630.73 778.055 631.212 779.9C631.662 781.626 630.671 783.976 630.772 785.796C630.895 788.017 631.825 790.454 632.185 792.709C632.744 796.217 632.863 799.781 633.082 803.322C634.014 818.398 635.743 833.019 635.607 848.173C635.546 854.896 634.123 861.731 633.507 868.435C632.77 876.469 632.734 884.598 632.146 892.658C655.015 895.406 678.168 895.946 701.084 898.409C726.338 901.124 829.907 915.652 844.179 930.366C845.646 931.879 846.969 934.051 846.684 936.249C846.382 938.571 844.454 940.411 842.668 941.722C840.044 943.647 836.822 944.953 833.882 946.315C804.296 960.016 764.967 965.586 732.712 970.064C716.573 972.304 700.482 974.913 684.326 977.017Q640.027 982.77 595.454 985.735C574.111 987.121 552.733 987.052 531.357 987.274Q499.818 987.806 468.285 986.951Q436.753 986.096 405.289 983.855Q373.825 981.615 342.49 977.992Q311.155 974.37 280.009 969.374C267.857 967.422 256.44 964.193 244.515 961.41C228.602 957.697 194.25 951.593 182.537 940.605C180.825 938.999 179.416 936.913 179.456 934.48C179.495 932.112 180.999 929.939 182.651 928.361C189.477 921.843 200.702 921.031 209.177 917.696C212.71 916.305 214.813 912.681 218.655 911.247C224.736 908.976 231.651 907.827 238.003 906.353Q251.209 903.282 264.584 901.061Q277.958 898.84 291.448 897.476Q304.937 896.113 318.486 895.614Q332.035 895.115 345.588 895.481C338.995 892.078 332.232 889.162 325.486 886.088C295.404 872.379 253.569 843.274 241.816 811.234C229.24 776.952 254.878 744.11 275.335 718.944C284.275 707.946 294.097 697.168 299.983 684.119C308.598 665.019 302.401 651.269 285.709 640.102C278.264 635.122 266.608 630.402 263.481 621.335C262.115 617.373 262.948 613.249 264.708 609.559C268.801 600.98 276.596 594.639 285.546 591.672C303.344 585.77 324.862 590.197 341.133 598.563C356.139 606.279 372.112 619.107 377.384 635.814C387.255 667.092 369.821 700.286 348.019 722.099C337.82 732.303 324.696 741.186 317.999 754.276C310.066 769.781 312.574 783.769 317.624 799.531C325.4 823.801 348.814 844.651 370.814 856.054C371.089 844.805 370.465 833.555 370.406 822.304C370.335 808.998 371.105 793.367 372.853 780.229C373.521 775.207 374.595 770.24 375.354 765.232C377.397 751.757 379.198 738.861 383.491 725.849C385.498 719.768 390.145 715.128 391.567 708.676C393.427 700.24 394.023 691.612 395.325 683.087C395.937 679.074 397.314 675.148 397.844 671.156C398.148 668.872 397.626 666.578 398.091 664.301C405.178 629.576 414.788 595.341 422.132 560.691C426.776 538.781 430.144 516.259 432.764 494.01C433.489 487.854 433.582 481.633 434.074 475.456Q436.078 451.389 436.733 427.248Q437.389 403.106 436.695 378.966C436.361 364.949 435.24 350.941 434.884 336.929C434.146 307.857 435.036 277.041 439.166 248.267C415.863 242.89 394.195 234.541 375.28 219.472C363.475 210.069 349.814 196.108 348.193 180.263C346.969 168.305 353.608 157.569 360.884 148.722C357.713 141.524 354.172 134.407 351.546 126.987C345.161 108.947 337.732 75.4399 344.457 57.6771C346.649 51.8879 350.172 49.0809 355.572 46.567C383.716 45.7417 439.288 73.4884 463.788 87.4309C487.002 84.6337 509.386 82.5004 532.507 87.7406ZM542.689 247.698C534.893 248.966 526.874 250.456 518.974 250.781C508.151 274.452 485.466 297.981 460.792 307.069C457.538 308.268 444.162 311.232 442.539 312.498C441.55 316.109 442.564 319.395 442.851 323.011C443.217 327.609 443.242 332.241 443.541 336.846C443.762 340.253 444.316 343.84 444.278 347.242C444.269 348.116 443.757 348.796 443.308 349.504C443.585 350.445 443.886 351.082 444.374 351.907C444.865 352.737 445.018 353.383 445.085 354.341C445.742 363.783 445.445 373.383 445.784 382.853C446.074 390.963 447.036 399.275 446.939 407.36C446.883 411.984 445.21 427.975 445.83 431.225C445.894 431.561 446.852 432.938 447.014 433.226C446.35 434.165 445.651 434.675 444.741 435.353C444.68 436.918 446.408 437.515 446.407 438.319C446.404 439.672 444.579 440.221 444.64 441.567C444.675 442.334 444.547 441.967 445.022 442.57C446.17 444.027 446.835 444.904 446.534 446.858C446.192 449.082 445.046 451.164 444.951 453.402C444.809 456.756 446.041 461.86 445.321 464.974C445.145 465.738 443.743 467.02 443.199 467.592L443.432 468.508L443.58 469.122C443.681 469.525 443.803 469.922 443.928 470.319C444.841 473.209 444.792 481.97 443.396 484.617Q442.889 485.566 442.326 486.484C442.583 489.321 442.691 492.075 442.442 494.917C441.867 501.477 434.395 553.733 432.734 556.318C432.403 556.834 431.755 557.196 431.253 557.524C431.394 560.002 431.731 562.697 431.45 565.161C430.76 571.214 426.342 589.071 423.123 594.228C422.719 594.875 422.383 595.607 422.033 596.283C422.708 597.769 423.34 598.629 422.742 600.298C422.061 602.199 419.27 605.263 419.555 607.074L420.476 607.796C419.83 608.819 419.123 609.344 418.182 610.076C417.921 612.332 419.087 614.429 418.785 616.591C418.246 620.448 416.865 624.448 415.989 628.262C413.631 638.523 411.177 648.847 409.03 659.153C407.997 664.109 408.163 672.413 405.61 676.612C405.187 677.308 404.801 678.031 404.385 678.733C404.786 679.433 405.169 679.95 405.736 680.525C405.514 685.759 402.782 690.345 401.847 695.4C401.035 699.789 401.454 704.668 400.856 709.175C399.441 719.831 397.712 730.583 396.673 741.274C396.262 745.502 396.329 749.762 395.935 753.989C395.542 758.199 394.832 762.388 394.571 766.61C394.166 773.129 394.613 779.689 394.241 786.204C394.07 789.203 392.174 795.657 393.153 798.202L394.079 799.068C393.602 799.821 392.566 799.998 392.739 800.748C392.974 801.768 392.875 801.299 393.405 802.346C394.938 805.373 393.203 811.009 393.142 814.364C393.09 817.228 394.3 820.024 394.404 822.884C394.53 826.351 393.844 829.971 393.74 833.457C393.626 837.316 394.02 841.232 394.27 845.084C395.038 856.901 395.478 868.834 396.854 880.594C399.608 904.124 406.054 927.002 414.862 948.944C426.745 954.454 440.104 957.981 453.241 958.354C460.879 958.571 468.69 958.256 476.26 959.454C474.272 949.754 473.681 940.075 472.524 930.276C471.419 920.916 469.758 911.588 468.903 902.203C467.702 889.019 463.086 819.412 467.672 811.626C468.071 810.948 468.603 810.546 469.237 810.109C470.665 810.008 470.601 809.962 471.713 810.855C472.698 812.864 472.969 814.789 473.122 817.001C473.555 823.262 472.434 829.543 472.664 835.809C472.851 840.88 473.591 845.941 473.905 851.008C474.281 857.084 474.236 863.184 474.6 869.267C474.9 874.27 475.599 879.228 476.002 884.222C476.379 888.887 479.651 908.286 478.856 910.71C478.803 910.872 478.736 911.029 478.69 911.193C478.578 911.587 478.51 911.993 478.421 912.393L478.213 913.31C478.654 914.875 479.732 915.88 480.213 917.283C480.936 919.389 479.463 919.458 479.347 921.084C479.169 923.558 481.097 926.97 481.481 929.528C482.492 936.258 482.531 943.328 483.192 950.126C483.51 952.374 483.674 956.926 485.439 958.51C489.355 962.024 519.158 958.445 525.552 957.808C525.902 952.641 525.502 947.514 525.651 942.35C525.988 930.682 526.686 919.042 527.427 907.415C527.581 905.009 526.865 902.55 526.897 900.13C526.961 895.198 528.08 889.945 528.458 884.987C529.137 876.067 529.321 867.073 529.682 858.134Q530.253 842.989 531.136 827.859C531.372 823.659 531.261 819.166 531.864 815.015C532.094 813.423 532.722 811.506 534.068 810.502C534.877 809.898 535.766 809.851 536.728 809.737C538.579 811.342 538.626 814.175 538.779 816.509C539.703 830.634 537.889 845.445 537.197 859.599Q535.542 893.483 534.889 927.4C534.693 936.675 533.587 946.245 534.571 955.491C544.969 959.002 562.345 958.147 572.874 955.128C572.819 947.538 574.214 940.626 574.816 933.156C575.148 929.027 574.337 925.15 576.364 921.341C577.53 920.526 577.53 920.478 578.939 920.572C581.374 922.945 581.299 928.787 581.317 932.077C581.357 939.277 580.118 946.461 580.71 953.661C594.478 952.307 606.568 946.338 618.797 940.33C622.039 917.933 623.438 895.765 624.863 873.201C625.573 861.957 626.934 850.684 626.674 839.404C626.507 832.161 626.305 824.693 625.599 817.484C625.417 815.628 624.17 810.86 624.603 809.196C624.863 808.202 625.581 807.503 625.547 806.401C625.485 804.36 623.489 801.556 623.363 798.76C622.505 779.825 619.261 761.221 616.513 742.493C610.662 702.61 602.738 663.248 595.001 623.709C594.282 620.036 594.468 616.213 593.767 612.572C593.418 610.756 592.122 609.365 591.663 607.569C589.963 600.924 588.732 593.536 587.738 586.745C587.455 584.811 587.92 584.033 588.33 582.266C588.377 582.063 588.376 581.852 588.399 581.646L586.908 581.145C585.481 576.579 584.802 571.567 583.887 566.859L578.434 537.757C576.983 529.958 574.617 521.8 573.66 513.987C573.556 513.143 573.715 512.336 573.844 511.507C574.462 507.539 571.069 495.281 570.281 490.239C564.198 451.317 556.927 412.453 551.816 373.391C547.873 343.255 546.736 313.215 545.18 282.895L544.033 259.76C543.876 255.841 544.305 251.648 543.392 247.829L542.689 247.698ZM491.751 89.2113C456.262 91.6383 423.195 102.363 394.933 124.446C387.899 129.943 381.236 135.641 375.373 142.408C367.156 151.891 359.412 163.254 356.865 175.731L356.313 178.401L356.706 179.179C358.889 183.561 359.201 188.743 361.88 192.742C379.751 219.413 409.973 233.737 440.59 240.148Q448.167 241.745 455.825 242.897Q463.482 244.05 471.193 244.756Q478.905 245.461 486.644 245.716Q494.384 245.972 502.125 245.776C541.513 243.889 573.442 237.939 606.923 215.762C614.232 210.92 621.727 205.981 627.647 199.441C633.637 192.824 638.78 184.31 638.343 175.097C637.519 157.756 622.048 141.707 609.766 130.905C577.612 102.625 534.914 86.6665 491.965 89.1911C491.893 89.1953 491.822 89.2046 491.751 89.2113ZM297.946 593.598C288.722 595.954 278.872 601.133 273.868 609.583C272.204 612.395 270.26 615.659 271.134 619.004C271.489 620.367 271.929 621.715 272.351 623.058C287.021 632.903 308.427 643.477 312.22 662.386C315.099 676.741 307.224 690.286 299.472 701.724C281.449 728.314 241.495 764.743 248.147 799.442C253.218 825.892 277.143 846.421 298.536 860.728Q305.413 865.233 312.553 869.309Q319.693 873.385 327.069 877.016Q334.445 880.648 342.03 883.821Q349.614 886.995 357.378 889.699L374.594 895.371C374.584 885.77 372.929 876.222 371.62 866.731C366.096 864.279 361.074 860.939 356.097 857.539C336.467 844.133 318.553 826.117 309.877 803.569C307.223 796.674 305.073 788.838 305.269 781.391C305.316 779.603 306.264 776.013 305.922 774.514C305.77 773.85 305.094 773.383 304.948 772.718C304.519 770.758 308.878 755.058 309.931 752.702C315.998 739.127 330.819 728.902 341.022 718.341C360.126 698.569 379.366 665.472 369.035 637.214C363.039 620.812 346.247 607.41 330.818 600.326C322.203 596.37 307.456 591.974 297.946 593.598ZM634.237 51.6724C607.878 55.7314 566.002 75.223 543.17 89.1928C560.034 94.4219 576.774 100.01 592.044 109.06C608.021 118.658 619.133 128.545 631.451 142.374C640.427 125.854 648.776 91.1875 647.949 72.7498C647.753 68.3857 646.677 64.1072 645.459 59.9303C644.656 57.1745 643.726 53.9833 641.094 52.4084C639.112 51.2223 636.439 51.2929 634.237 51.6724ZM357.685 50.8332C350.549 58.9875 350.359 72.8375 351.058 83.0627C351.698 92.429 355.992 113.598 359.115 122.356C361.35 128.625 364.7 134.164 366.007 140.785C369.885 137.693 373.073 133.482 376.326 129.748C367.692 120.256 354.91 96.1439 355.786 83.4111C355.89 81.9054 356.457 79.7736 357.791 78.8584C358.911 78.0898 359.235 78.1767 360.465 78.4319C363.728 80.7954 364.933 92.95 366.704 97.5614C369.112 103.835 372.417 109.974 375.846 115.752C377.954 119.043 379.996 122.415 382.31 125.565C405.134 106.6 428.443 96.388 456.824 89.0061C431.338 76.7648 406.73 64.1111 379.545 55.8971C372.441 53.7505 365.091 51.548 357.685 50.8332ZM383.764 772.346C380.691 790.23 379.59 808.96 379.505 827.139C379.394 851.088 384.055 923.669 394.714 944.145L399.11 945.514L402.283 946.284C402.312 943.3 397.99 933.468 396.852 929.871C393.479 919.217 391.293 908.044 389.528 897.023C384.423 865.143 383.559 833.182 383.885 800.969C383.933 796.143 383.57 791.309 383.708 786.491C383.836 782.037 384.508 777.639 384.653 773.201L383.764 772.346ZM298.406 942.204C292.912 942.907 287.667 943.626 282.107 943.269C293.36 947.315 317.869 949.049 329.874 946.95C335.781 946.66 341.672 946.466 347.518 945.508C332.846 942.269 313.388 940.408 298.406 942.204ZM706.702 930.085C714.888 936.186 738.45 933.875 748.65 932.393C737.889 926.587 719.128 931.99 706.702 930.085ZM547.367 971.685C539.051 973.147 530.329 972.355 522.512 975.78C527.811 976.073 533.088 976.264 538.376 975.696C543.257 975.382 556.65 976.829 559.855 973.413C559.465 972.322 559.796 972.618 558.831 972.133C555.956 970.688 550.462 971.107 547.367 971.685ZM584.434 978.241C578.43 978.45 572.836 980.219 566.945 980.56C566.337 980.595 566.595 980.543 566.012 980.806C566.586 981.736 567.572 981.881 568.607 982.084C573.374 983.021 584.501 981.587 589.88 981.081C594.84 980.795 601.775 981.145 606.215 978.682L606.374 978.395C602.8 977.627 598.664 978.404 595.002 978.476C591.49 978.545 587.951 978.294 584.434 978.241ZM791.607 943.727C784.681 943.997 777.199 943.814 770.434 945.431C775.191 946.651 779.322 947.579 784.262 947.331C790.07 946.801 796.942 946.793 802.385 944.625L802.405 944.032C798.875 943.102 795.214 943.541 791.607 943.727ZM738.342 948.511C732.836 950.601 726.996 951.378 721.216 952.381C727.413 952.431 733.705 952.708 739.877 952.067C743.83 951.81 749.652 952.598 753.075 951.946L753.696 951.225C753.2 950.369 753.03 950.312 752.1 950.023C750.671 949.581 739.799 948.413 738.342 948.511ZM368.271 912.213C364.909 912.45 361.527 912.573 358.242 913.378C362.372 914.442 366.587 915.421 370.649 916.71C372.408 916.903 374.96 917.465 376.539 916.53C377.031 916.238 377.241 915.95 377.599 915.547C377.517 914.354 377.509 914.238 376.565 913.395C374.462 911.517 370.86 912.093 368.271 912.213ZM639.269 926.191C636.12 926.494 632.095 926.81 629.422 928.632C629.906 929.512 629.569 929.246 630.619 929.579C633.505 930.497 638.003 929.263 640.981 928.849C644.756 928.152 648.419 927.309 652.113 926.266C647.846 926.051 643.522 925.657 639.269 926.191Z"/>
	<defs>
		<linearGradient id="gradient_0" gradientUnits="userSpaceOnUse" x1="634.2948" y1="103.2333" x2="627.10364" y2="100.42243">
			<stop offset="0" stop-color="black" stop-opacity="0.96470588"/>
			<stop offset="1" stop-color="black"/>
		</linearGradient>
	</defs>
	<path fill="url(#gradient_0)" d="M638.109 75.7873C639.376 76.0542 640.33 76.14 641.208 77.1885C641.604 79.5953 641.372 81.9632 640.972 84.3539C638.958 96.3618 633.005 120.985 623.064 128.114C622.141 127.473 621.065 126.676 620.34 125.814C619.561 124.887 619.312 124.124 619.447 122.921C619.995 118.006 624.003 113.081 625.684 108.384C628.994 99.1392 630.393 88.9052 634.435 79.9505C635.255 78.1343 636.602 77.0423 638.109 75.7873Z"/>
	<path d="M539.948 183.37C540.119 183.403 540.293 183.427 540.462 183.47C541.994 183.862 542.861 184.437 543.651 185.793C543.548 188.218 542.102 189.691 540.564 191.413C531.158 201.937 512.473 212.148 498.156 212.788C481.644 213.525 467.147 202.916 455.563 192.359C454.474 191.279 453.004 190.012 452.314 188.642C451.793 187.606 451.967 187.294 452.264 186.249C453.455 185.399 454.034 184.829 455.584 185.28C459.267 186.354 462.62 189.73 465.573 192.117C473.947 198.885 484.254 205.762 495.303 206.638C511.713 207.939 528.318 193.364 539.948 183.37Z"/>
	<path d="M495.739 165.251C501.053 164.717 506.714 164.689 512.066 164.714C515.169 164.729 519.731 165.015 521.829 167.656C522.633 168.667 522.792 169.81 522.645 171.056C521.909 177.27 510.59 184.992 505.765 188.107C503.485 189.139 501.627 189.308 499.187 188.643C492.599 186.845 484.517 179.899 481.381 173.819C480.457 172.028 480.136 170.628 480.811 168.687C484.049 164.878 490.524 165.962 495 165.355L495.739 165.251Z"/>
	<path d="M558.262 139.161C558.751 139.111 559.24 139.057 559.732 139.036C568.96 138.637 577.946 142.577 584.582 148.873C588.567 152.653 593.202 158.517 593.095 164.235C593.062 165.994 592.781 167.07 591.578 168.304C590.197 168.731 588.258 168.77 587.066 167.738C585.907 166.735 585.033 164.029 584.323 162.618C579.231 152.51 572.855 149.074 562.845 145.022C562.388 147.105 561.672 149.264 560.806 151.214C557.283 159.152 550.572 166.816 542.24 169.816C539.41 170.836 536.432 171.152 533.665 169.757C531.827 168.83 529.739 167.034 529.196 164.966C528.159 161.017 531.715 154.795 534 151.58C539.892 143.292 548.747 140.703 558.262 139.161Z"/>
	<path d="M434.716 139.72Q435.625 139.681 436.534 139.691C446.512 139.805 455.9 142.205 463.022 149.593C466.707 153.416 471.751 159.519 471.423 165.085C471.33 166.653 470.847 167.588 469.654 168.634C463.455 169.903 457.916 156.931 453.941 153.012C450.545 149.665 446.497 147.648 442.1 145.958C441.796 146.049 441.458 146.063 441.189 146.23C439.727 147.136 434.781 162.147 425.126 167.217C419.477 170.183 413.92 169.492 408.118 167.602C407.158 165.929 406.327 164.162 405.45 162.443C406.83 158.629 408.42 155.338 410.978 152.147C417.173 144.418 425.014 140.798 434.716 139.72Z"/>
</svg>
