<?xml version="1.0" encoding="utf-8" ?>
<svg xmlns="http://www.w3.org/2000/svg" xmlns:xlink="http://www.w3.org/1999/xlink" width="1024" height="1024">
	<path fill="#2A2829" d="M771.173 812.189C773.579 812.971 777.219 813.691 778.467 816.032C776.728 817.222 774.689 816.577 772.75 816.212Q771.473 815.973 770.2 815.718C770.435 814.521 770.827 813.357 771.173 812.189Z"/>
	<path d="M653.005 678.88Q653.549 683.94 654.281 688.977L653.56 688.793L652.579 686.684L652.377 686.849L652.367 685.704L651.828 686.098C651.855 687.087 651.866 687.601 651.403 688.512C651.293 688.727 651.159 688.929 651.037 689.137C650.541 686.86 650.534 684.575 650.455 682.255C651.216 680.945 651.928 679.949 653.005 678.88Z"/>
	<path d="M712.192 874.665C715.579 874.511 721.819 873.829 724.589 876.012C723.781 877.057 723.356 876.866 722.109 877.135Q718.681 877.206 715.252 877.158C713.399 877.116 709.651 877.298 708.412 875.998C709.448 874.992 710.828 874.921 712.192 874.665Z"/>
	<path d="M288.077 963.017C287.19 964.374 286.556 964.742 284.929 965.036C280.301 965.872 271.943 965.768 267.029 965.646C263.964 965.641 260.664 966.109 257.736 965.097C267.27 962.833 278.275 963.943 288.077 963.017Z"/>
	<defs>
		<linearGradient id="gradient_0" gradientUnits="userSpaceOnUse" x1="260.73697" y1="967.06018" x2="260.76331" y2="965.42377">
			<stop offset="0" stop-color="black" stop-opacity="0.9254902"/>
			<stop offset="1" stop-color="black" stop-opacity="0.96862745"/>
		</linearGradient>
	</defs>
	<path fill="url(#gradient_0)" d="M273.815 968.399C267.518 968.541 260.157 969.204 253.991 967.958C252.901 967.738 252.339 967.8 251.721 966.861C253.254 965.439 255.707 965.041 257.736 965.097C260.664 966.109 263.964 965.641 267.029 965.646C268.771 966.389 270.342 966.34 272.214 966.358L272.452 966.775C271.402 966.933 270.355 967.091 269.3 967.215L273.815 968.399Z"/>
	<path d="M710.122 885.226C721.002 884.406 734.011 884.184 744.724 886.259C745.867 886.48 746.034 886.263 746.684 887.232C735.411 888.492 721.157 888.344 710.122 885.226Z"/>
	<path fill="#2A2829" d="M776.366 934.309C777.728 934.158 779.096 934.149 780.465 934.115C780.408 934.176 747.939 941.369 744.72 942.053C743.464 942.055 742.642 942.084 741.471 941.562L741.384 940.816C749.139 935.367 766.832 934.861 776.366 934.309Z"/>
	<path d="M764.438 914.725C765.058 914.608 765.706 914.633 766.337 914.614C762.369 917.641 741.515 919.868 736.081 920.006C732.539 920.096 729.077 919.754 725.565 919.338L722.397 918.768C726.084 917.968 730.032 917.837 733.789 917.42Q749.078 915.673 764.438 914.725Z"/>
	<path d="M735.01 856.275C743.78 855.651 752.316 856.178 761.002 857.404C754.598 858.29 748.062 858.712 741.62 859.317C735.539 860.089 727.266 860.813 721.344 859.347C720.218 859.068 719.786 859.117 719.181 858.109C722.29 855.664 731.11 856.354 735.01 856.275Z"/>
	<path d="M586.703 951.094C590.581 952.396 599.65 950.243 601.164 951.086C601.652 951.357 601.955 951.874 602.351 952.268C597.625 953.569 592.173 953.706 587.298 954.347C573.29 956.188 557.596 959.695 543.507 957.951C556.399 953.284 572.961 951.148 586.703 951.094Z"/>
	<path d="M250.642 872.214C252.468 872.062 254.753 871.669 256.554 872.144C257.814 872.477 258.518 872.786 259.241 873.865L258.624 874.868C250.537 879.845 236.995 878.5 227.875 878.49C225.298 878.538 221.094 879.111 219.013 877.531L219.408 876.772C228.661 872.742 240.654 872.828 250.642 872.214Z"/>
	<path d="M684.1 918.706C687.68 918.862 691.306 918.961 694.863 919.405C697.234 919.7 699.745 920.372 702.102 920.525C704.424 920.675 707.078 919.844 709.42 919.634C713.55 919.264 717.703 919.174 721.824 918.682C712.744 921.799 703.397 921.797 694.018 923.453C708.306 928.805 721.126 923.783 734.111 926.817C731.019 929.104 698.366 928.578 692.385 928.4L690 926.794L690.494 926.309C690.118 925.907 690.199 926.128 690.155 925.687C690.662 925.138 691.128 924.622 691.544 923.998C691.644 923.848 691.737 923.694 691.834 923.541L691.815 922.778C690.73 921.385 687.06 919.769 685.298 919.616C684.995 919.59 684.69 919.586 684.386 919.57L684.1 918.706Z"/>
	<path d="M736.804 835.707C742.828 834.718 765.616 835.207 770.658 837.441L770.415 838.073C765.094 840.196 758.536 839.59 752.875 839.66C745.353 839.704 737.779 840.244 730.256 840.512C727.246 840.62 721.538 841.234 719.239 839.094L719.702 838.376C725.007 836.408 731.203 836.076 736.804 835.707Z"/>
	<path d="M633.457 964.221C636.344 963.899 639.571 963.899 642.413 964.518C643.597 964.776 644.61 964.853 645.262 965.9C639.274 970.668 605.649 968.934 596.807 969.014C592.408 969.316 588.543 969.7 584.317 968.156L584.03 967.485C590.981 963.725 624.007 964.79 633.457 964.221Z"/>
	<path d="M302.902 269.706C297.668 263.476 291.372 257.993 286.764 251.263C270.24 227.127 264.655 193.311 263.387 164.536C262.702 148.987 266.008 92.1313 276.382 81.6075C277.534 80.4394 278.893 79.9427 280.52 80.0063C289.806 80.3694 297.567 103.006 301.585 110.031C303.344 113.107 305.918 115.851 308.204 118.543C327.392 117.938 346.301 114.093 365.513 113.75C377.09 113.543 388.737 115.069 400.105 117.173C405.59 108.3 406.898 94.9286 413.674 87.4702C415.051 85.9536 416.269 85.1864 418.348 85.1057C419.656 85.557 420.435 86.001 421.323 87.0885C428.902 96.3755 435.043 151.393 435.419 165.197Q435.923 182.996 433.756 200.669C431.057 222.881 418.966 250.941 401.166 264.968C400.879 277.202 402.837 289.3 404.163 301.426C405.056 309.59 405.441 317.791 406.242 325.963C407.185 335.581 408.54 345.252 409.212 354.885C409.675 361.522 409.663 368.193 410.053 374.835C411.206 394.445 412.492 414.161 414.039 433.738C415.46 451.725 416.645 469.805 418.319 487.763C420.216 508.116 422.735 528.427 424.633 548.787L428.709 597.261C430.092 612.395 431.784 627.516 433.064 642.653C435.845 675.529 438.377 708.096 446.547 740.179C451.458 716.449 453.377 691.984 456.501 667.961Q466.838 591.063 474.458 513.848L480.971 446.064C484.328 413.532 488.286 380.907 486.19 348.143C481.371 345.397 477.781 342.33 474.957 337.487C465.571 321.39 447.008 251.993 452.448 234.275C456.078 222.455 496.846 198.223 508.551 192.2C534.722 178.732 568.284 176.765 596.18 185.807Q601.93 187.723 607.448 190.23Q612.966 192.737 618.192 195.806C632.272 204.263 669.675 232.78 676.439 246.65C683.861 261.872 669.524 315.931 663.257 333.082C660.461 340.733 657.35 347.897 649.577 351.499Q648.627 351.16 647.695 350.775C639.829 347.493 636.435 335.772 633.441 328.53C633.38 330.288 633.356 331.764 632.691 333.408C631.066 344.907 631.263 356.868 630.95 368.466C631.169 378.91 631.264 389.409 631.872 399.839C632.256 406.415 633.52 413.712 633.061 420.247C634.076 427.766 634.244 437.319 633.38 444.85C633.73 447.519 633.907 450.021 633.844 452.721C635.258 459.414 636.094 467.048 635.453 473.873C635.601 479.898 635.73 485.978 636.211 491.986C636.589 496.695 637.42 501.393 637.472 506.12C639.626 524.853 640.562 543.76 642.423 562.533C643.802 576.453 645.139 590.324 646.149 604.278C646.444 608.352 647.403 613.296 647.037 617.309C647.861 622.714 648.048 628.247 648.506 633.694C648.795 637.13 649.434 640.643 649.497 644.078C649.982 648.925 650.044 653.876 651.035 658.647L651.247 662.598C652.076 667.975 651.658 673.596 653.005 678.88C651.928 679.949 651.216 680.945 650.455 682.255C650.534 684.575 650.541 686.86 651.037 689.137C651.159 688.929 651.293 688.727 651.403 688.512C651.866 687.601 651.855 687.087 651.828 686.098L652.367 685.704L652.377 686.849L652.579 686.684L653.56 688.793L654.281 688.977L656.092 696.495C665.742 682.573 677.718 670.97 694.774 667.486C700.985 670.713 704.24 676.357 706.298 682.831C711.421 698.944 713.013 722.59 712.398 739.426C711.823 755.137 710.112 770.924 711.604 786.622C734.193 765.653 761.434 734.944 772.138 705.992Q774.638 699.162 776.597 692.157C778.403 685.734 784.265 657.872 792.617 658.591C793.955 658.706 794.908 659.161 795.745 660.214C799.515 664.959 797.115 684.122 795.963 689.984C793.539 702.33 789.221 713.943 784.282 725.474C768.567 762.161 752.132 780.902 725.242 809.689C741.015 808.046 755.688 808.096 771.173 812.189C770.827 813.357 770.435 814.521 770.2 815.718C763.163 814.554 756.132 813.668 748.987 813.54C739.349 813.368 729.658 814.09 720.048 813.144C716.703 817.683 712.367 821.691 707.71 824.863C706.669 839.242 703.526 853.518 703.424 867.954C708.316 868.53 712.944 868.799 717.44 871.014C712.529 871.002 707.634 870.66 702.929 872.265C704 873.787 705.074 875.022 705.262 876.918C704.245 878.26 703.156 878.3 702.361 879.866L702.499 880.779C703.498 881.326 704.421 881.695 705.507 882.035L706.145 882.89C705.21 884.309 703.904 883.953 702.689 884.861C701.028 886.104 700.047 889.46 699.286 891.341C704.619 891.882 710.418 891.126 715.604 892.12L715.948 893.11L715.447 893.716C710.539 894.166 702.696 893.64 698.456 896.121L698.228 896.809C701.862 899.023 707.715 897.949 711.889 898.225C716.799 898.549 721.332 900.783 726.441 900.961C740.633 901.455 755.096 898.778 769.377 898.782L769.081 899.276L769.034 898.905L770.094 899.508C770.082 899.509 770.07 899.507 770.058 899.51C769.804 899.567 769.552 899.633 769.298 899.689C766.397 900.34 763.166 900.27 760.192 900.56C753.61 901.202 747.012 901.86 740.395 901.995C731.249 902.182 722.288 901.527 713.222 903.179C720.046 906.714 726.217 909.369 733.703 911.323C729.993 911.901 720.833 913.597 717.557 911.767C717.425 911.693 717.315 911.584 717.194 911.492C710.317 913.545 696.859 912.954 689.146 913.561C682.094 914.302 675.033 914.849 668.37 917.429L671.043 919.345C675.505 918.557 679.582 918.374 684.1 918.706L684.386 919.57C684.69 919.586 684.995 919.59 685.298 919.616C687.06 919.769 690.73 921.385 691.815 922.778L691.834 923.541C691.737 923.694 691.644 923.848 691.544 923.998C691.128 924.622 690.662 925.138 690.155 925.687C690.199 926.128 690.118 925.907 690.494 926.309L690 926.794L692.385 928.4Q672.46 929.555 652.505 929.896C639.999 930.149 627.272 929.836 614.818 930.855C607.974 931.414 601.145 932.594 594.379 933.737C604.384 934.503 614.393 934.578 624.411 935.023C645.284 935.951 666.138 936.835 687.039 936.587C705.915 936.363 724.152 934.416 743.098 935.839Q727.09 938.002 710.967 939.007Q694.845 940.012 678.692 939.854C651.426 939.561 624.41 936.925 597.46 942.516C601.572 943.366 605.652 943.993 609.837 944.344C619.814 945.181 670.381 946.173 675.25 950.24C674.844 951.206 675.156 950.932 674.209 951.365C667.827 954.281 639.322 951.535 630.058 951.46C620.867 951.386 611.519 951.584 602.351 952.268C601.955 951.874 601.652 951.357 601.164 951.086C599.65 950.243 590.581 952.396 586.703 951.094C592.43 950.78 598.392 950.599 604.001 949.339C596.057 949.006 588.216 947.227 580.262 946.839C568.296 946.256 557.365 949.021 545.533 945.445C552.947 943.273 560.801 942.638 568.473 941.958C570.984 941.736 574.225 941.903 576.604 941.274C577.086 941.147 577.235 941.007 577.601 940.753C568.413 936.689 475.592 947.637 461.106 949.679C459.977 950.686 460.134 950.823 459.963 952.354C471.909 952.408 516.443 950.726 524.895 953.443L525.101 954.042C523.653 955.161 521.89 955.312 520.136 955.598C508.192 957.54 496.089 958.378 484.118 960.2C468.566 962.566 452.639 966.139 436.977 967.259C442.696 967.648 454.247 967.058 458.677 970.983L458.697 971.708C453.342 976.042 389.853 975.345 379.251 975C366.854 974.598 354.492 973.383 342.083 973.08C324.744 972.657 304.898 973.825 287.851 971.777C283.129 971.209 279.182 968.805 274.35 968.443L273.815 968.399L269.3 967.215C270.355 967.091 271.402 966.933 272.452 966.775L272.214 966.358C270.342 966.34 268.771 966.389 267.029 965.646C271.943 965.768 280.301 965.872 284.929 965.036C286.556 964.742 287.19 964.374 288.077 963.017C282.049 959.38 266.32 961.511 259.017 961.546C255.605 959.311 252.257 957.66 248.292 956.605C241.934 954.913 233.001 955.978 227.866 951.349C222.976 946.941 220.495 939.619 220.297 933.292C215.942 929.994 211.941 927.05 209.724 921.855C209.43 920.8 208.84 919.794 208.363 918.807C204.882 918.637 201.459 918.288 198 917.862C209.7 915.617 221.665 916.854 233.44 914.262L231.958 910.028L219.695 907.218C231.09 905.527 245.554 907.972 256.689 910.909C258.22 908.025 259.624 905.063 261.072 902.137C251.997 902.642 241.64 904.181 232.677 902.791C235.239 901.273 235.772 899.617 236.898 897.041Q239.851 895.329 243.093 894.261C246.736 893.056 255.817 890.011 259.327 891.814L259.562 892.742C257.293 896.188 247.177 895.77 243.414 898.221C242.539 898.791 242.829 898.481 242.58 899.6C242.818 899.751 243.038 899.936 243.295 900.052C248.901 902.581 264.039 900.625 269.855 898.682C273.252 897.547 276.496 895.737 279.676 894.1C277.971 894.08 275.545 894.266 274.124 893.233L274.457 892.647C276.613 891.76 278.531 891.553 280.828 891.394C279.04 883.203 276.799 875.072 275.326 866.821C273.177 854.789 272.03 842.547 270.666 830.406C248.02 831.216 220.749 836.379 199.234 843.755C199.71 843.044 200.214 842.338 200.783 841.697C210.332 830.934 255.858 826.198 270.802 825.351C270.721 806.26 268.044 787 266.801 767.941C266.217 758.996 266.415 749.958 266.432 740.997C266.458 727.588 267.023 713.884 270.871 700.932C271.934 697.355 273.684 692.699 277.247 690.947C278.767 690.2 280.379 690.191 281.934 690.824C291.001 694.517 296.263 717.364 300.008 726.188C300.716 727.855 301.735 730.675 303.507 731.393C304.753 729.898 304.509 725.61 304.472 723.619C304.324 715.578 303.114 707.538 302.701 699.501Q301.236 669.072 300.836 638.611C300.679 615.497 300.969 592.353 300.331 569.244C299.982 556.631 298.631 544.016 298.593 531.396C298.524 509.19 300.445 487.004 300.341 464.781C300.26 447.345 298.181 430.006 298.495 412.554C298.785 396.46 300.746 380.311 301.891 364.254C304.118 333.002 305.353 300.962 302.902 269.706ZM508.842 197.355C506.315 207.609 506.209 218.377 505.351 228.854C504.09 244.271 502.576 259.886 500.832 275.258C497.992 300.287 491.979 324.975 490.772 350.12C490.428 357.286 491.63 364.2 491.591 371.32C491.55 379.042 490.288 386.683 489.832 394.375C489.116 406.478 489.652 419.037 487.013 430.942C490.261 438.208 492.177 446.41 493.875 454.164C499.414 479.448 502.101 508.651 492.698 533.383C488.719 543.85 482.262 550.369 473.364 556.841C473.249 560.106 473.684 566.585 472.128 569.307C471.882 577.262 470.865 586.519 469.04 594.263C467.394 614.048 464.289 633.722 461.789 653.406C461.319 657.103 461.402 660.871 460.958 664.584L455.728 707.821C455.44 710.315 452.95 726.226 453.192 727.439L453.881 727.293C455.044 725.438 455.715 723.528 456.452 721.483C457.612 718.163 459.071 714.939 460.451 711.705C462.119 712.439 463.344 712.954 465.181 712.973C468.194 707.717 473.48 696.208 479.544 694.457C480.862 694.077 482.122 694.263 483.302 694.957C487.851 697.63 489.552 705.615 490.941 710.291C492.401 716.584 493.243 722.939 493.944 729.356C494.252 734.477 494.378 739.557 494.407 744.686C495.615 744.14 496.539 743.77 497.868 743.577C498.658 742.352 498.073 741.341 499.01 740.301C499.986 740.785 499.652 740.416 500.045 741.566C500.754 743.638 501.165 746.411 501.075 748.596C505.2 772.303 502.527 797.149 502.42 821.093C500.819 830.644 500.48 840.416 499.11 850.011C496.818 866.064 492.052 881.209 486.677 896.456C487.649 896.787 487.875 896.694 488.496 897.527C489.053 898.274 489.388 898.442 490.217 898.789C491.62 899.358 492.687 900.557 493.787 901.569C493.157 905.806 492.611 910.303 495.308 914.007C496.328 915.409 497.922 916.556 499.709 916.623C501.007 916.673 502.08 916.133 503.031 915.296C506.09 912.604 505.517 907.586 506.093 903.983C506.294 902.726 506.465 902.181 507.472 901.41C509.787 903.483 508.483 910.568 510.018 913.85C510.712 915.334 511.511 915.879 512.997 916.455C513.813 916.395 514.272 916.25 515.011 915.853C518.841 913.795 519.277 910.499 520.309 906.7C520.884 904.581 521.585 902.569 523.541 901.441C525.086 901.952 525.762 903.118 526.695 904.36C533.613 889.94 536.081 872.657 538.84 856.993C542.109 838.43 544.738 819.767 547.961 801.199C552.445 775.363 558.035 749.656 563.49 724.009C565.627 713.958 564.888 703.06 569.958 693.863C573.014 696.971 574.315 700.556 575.602 704.633C578.731 714.551 580.719 724.805 582.918 734.957Q586.816 752.76 590.938 770.513C594.081 783.951 597.047 797.554 600.745 810.848C605.045 826.309 610.244 841.56 615.006 856.885C619.179 870.313 622.305 884.727 629.215 897.048C630.467 895.865 631.156 894.701 632.931 894.294L633.804 894.877C634.539 897.41 633.958 900.568 633.794 903.188C634.743 903.991 635.708 904.838 636.737 905.542C642.57 909.535 648.673 908.627 655.175 907.371C658.891 896.965 661.694 887.22 662.55 876.163C662.975 868.522 662.972 860.836 663.106 853.183L662.614 847.105L662.181 829.649L664.952 825.877C663.827 821.519 664.847 814.072 664.485 809.147L658.99 743.352L658.524 744.667C658.236 744.704 657.947 744.736 657.659 744.779C656.464 744.959 656.925 744.827 655.889 745.344C655.035 738.237 654.607 731.056 654.087 723.918C652.749 712.478 651.424 700.64 651.037 689.137C650.541 686.86 650.534 684.575 650.455 682.255C651.216 680.945 651.928 679.949 653.005 678.88C651.658 673.596 652.076 667.975 651.247 662.598L651.035 658.647C650.044 653.876 649.982 648.925 649.497 644.078C649.434 640.643 648.795 637.13 648.506 633.694C648.048 628.247 647.861 622.714 647.037 617.309C647.403 613.296 646.444 608.352 646.149 604.278C645.139 590.324 643.802 576.453 642.423 562.533C640.562 543.76 639.626 524.853 637.472 506.12C637.42 501.393 636.589 496.695 636.211 491.986C635.73 485.978 635.601 479.898 635.453 473.873C636.094 467.048 635.258 459.414 633.844 452.721C633.754 453.026 633.657 453.329 633.573 453.636C633.023 455.643 633.885 457.992 632.901 459.763L631.694 459.521C617.123 448.036 611.17 441.209 608.9 421.838C607.492 409.825 609.579 396.984 617.33 387.382C620.056 384.005 623.247 381.483 626.702 378.886C629.5 365.446 628.066 349.098 628.37 335.199C628.632 323.228 630.486 311.408 630.525 299.438C630.581 281.982 629.24 264.715 628.625 247.298C628.222 235.888 628.501 224.394 628.525 212.976C615.965 211.256 602.828 211.405 594.282 200.348C591.472 196.711 589.589 192.44 588.048 188.137C579.922 187.456 571.958 185.997 563.78 185.7C542.282 184.921 528.543 191.796 508.842 197.355ZM309.511 274.287L309.289 320.881C309.248 327.002 309.532 333.139 309.271 339.257C308.761 351.228 307.299 363.245 306.386 375.2C305.577 385.802 305.296 396.497 305.092 407.126C304.445 440.848 305.346 474.675 305.475 508.403L305.78 580.249C305.768 594.865 305.411 609.472 305.621 624.09Q305.839 656.112 307.256 688.103C307.627 696.032 308.725 703.926 309.047 711.852C309.438 721.454 309.013 731.111 309.534 740.706C310.591 760.168 314.406 780.023 312.416 799.524C312.199 801.653 312.166 804.727 310.434 806.135C306.64 803.503 306.644 785.299 306.36 780.518C306.149 776.981 305.418 773.506 304.96 769.993C301.755 745.43 295.325 717.068 279.626 697.375C277.521 702.833 275.075 708.415 274.171 714.226C269.489 744.323 273.398 775.764 275.171 805.998C276.309 825.409 276.427 844.872 279.91 864.071C282.007 875.632 287.323 885.964 289.879 897.287L290.051 898.065C283.08 900.939 271.533 902.256 266.125 907.746C265.026 908.861 264.461 909.895 264.452 911.496C264.789 912.451 265.042 912.893 265.826 913.58C273.306 920.128 315.51 915.307 326.429 914.46C326.605 904.169 326.064 893.822 325.833 883.531L324.641 828.959L322.663 758.707C322.247 740.467 322.35 722.223 321.546 703.992L319.145 641.193Q318.203 620.325 318.409 599.436C318.445 587.417 318.441 575.503 320.397 563.611C324.207 573.408 323.703 629.414 324.127 643.91C324.605 660.301 326.479 677.138 325.505 693.51C325.965 706.43 327.244 719.37 326.912 732.292C328.551 743.435 327.607 759.473 327.923 771.373L329.968 861.436C330.151 873.699 330.819 886.248 331.538 898.499C331.886 904.439 332.856 910.523 332.693 916.47C332.559 921.346 329.8 926.055 328.154 930.585C328.708 932.486 329.185 934.652 330.602 936.116C334.078 939.708 340.096 939.901 344.79 940.035C346.227 938.024 347.792 935.985 348.741 933.689C351.174 927.805 349.409 923.361 347.192 917.82C351.863 893.34 350.556 860.761 350.529 835.487L350.444 668.78C350.533 647.819 349.617 626.944 350.899 605.982C351.205 600.984 351.323 595.818 352.064 590.874C352.43 588.435 353.079 586.11 354.42 584.023L355.065 584.11C355.729 586.195 355.615 588.083 355.556 590.237C356.934 599.01 356.552 612.707 355.571 621.563C356.281 628.332 355.578 635.874 355.552 642.737L355.39 691.947C355.56 719.549 355.161 747.204 355.736 774.797C356.183 796.278 357.698 817.641 357.449 839.154C357.249 856.398 354.967 873.644 354.062 890.848C353.728 897.211 353.941 903.687 353.979 910.061C354.933 911.395 356.101 912.505 357.255 913.662C365.397 915.85 373.692 914.895 381.941 913.954C382.228 905.263 381.324 896.691 380.842 888.029L378.673 847C378.281 838.194 378.257 829.37 377.86 820.556Q374.918 754.507 370.229 688.558C368.7 667.105 358.759 590.333 363.757 573.654L364.289 573.43C365.917 576.38 366.928 582.6 366.93 585.991C366.93 586.237 366.923 586.484 366.92 586.731C367.831 591.314 367.949 596.172 368.236 600.831C369.093 614.713 368.601 629.566 370.889 643.259C371.981 656.787 372.938 670.404 374.32 683.902C375.671 697.084 377.265 709.88 377.649 723.165C377.745 726.455 378.225 730.084 377.806 733.345C381.048 748.571 378.768 764.943 380.816 780.415L383.659 829.907C384.095 836.735 385.165 843.518 385.44 850.357C385.909 862.028 385.452 873.763 385.686 885.444C385.895 895.917 386.788 906.182 387.526 916.608C385.186 920.22 378.868 928.444 379.593 932.689C379.876 934.346 380.656 935.51 382.054 936.401C385.574 938.646 390.669 938.494 394.541 937.421C398.306 936.377 402.317 934.278 404.162 930.662C406.972 925.154 403.436 916.512 402.696 910.631C402.006 905.145 402.455 899.11 402.485 893.573Q402.572 879.208 402.5 864.842C402.408 835.292 401.925 805.637 402.537 776.099C403.03 752.296 404.685 728.687 404.463 704.837C404.356 693.409 403.426 681.939 402.837 670.525L400.665 624.53C399.866 609.469 399.187 594.368 398.172 579.321C397.73 572.758 396.304 565.828 396.527 559.279C396.622 556.468 397.139 553.288 398.554 550.836L399.104 550.677C403.543 557.092 405.442 608.62 405.777 619.761C405.976 626.371 406.958 632.828 407.354 639.402C407.725 645.58 407.274 651.815 407.573 658.007C407.952 665.862 409.135 673.673 409.419 681.531C410.478 710.827 409.791 740.498 409.336 769.814L407.417 850.743C407.192 859.395 406.301 868.022 406.063 876.673C405.75 888.018 406.565 899.132 408.043 910.372Q437.615 912.034 467.229 912.552C468.325 909.239 469.265 905.661 470.727 902.502C472.043 903.709 471.771 904.722 471.842 906.486C471.903 908.017 471.779 909.545 471.938 911.072C473.327 911.681 474.235 911.96 475.734 911.404C481.224 909.365 484.233 901.4 486.677 896.456C492.052 881.209 496.818 866.064 499.11 850.011C500.48 840.416 500.819 830.644 502.42 821.093C502.527 797.149 505.2 772.303 501.075 748.596C501.165 746.411 500.754 743.638 500.045 741.566C499.652 740.416 499.986 740.785 499.01 740.301C498.073 741.341 498.658 742.352 497.868 743.577C496.539 743.77 495.615 744.14 494.407 744.686C494.378 739.557 494.252 734.477 493.944 729.356C493.243 722.939 492.401 716.584 490.941 710.291C489.552 705.615 487.851 697.63 483.302 694.957C482.122 694.263 480.862 694.077 479.544 694.457C473.48 696.208 468.194 707.717 465.181 712.973C463.344 712.954 462.119 712.439 460.451 711.705C459.071 714.939 457.612 718.163 456.452 721.483L458.132 720.986C459.469 726.105 451.194 735.882 452.868 742.564C451.827 746.993 450.414 751.347 449.494 755.804C448.411 761.053 447.653 776.929 444.48 780.293C442.226 776.752 443.562 764.444 442.92 759.47C440.908 743.883 437.971 728.344 435.776 712.763Q431.226 678.689 427.702 644.494C423.598 606.393 421.435 568.073 417.821 529.927C415.086 501.064 410.855 472.302 408.927 443.372L402.802 356.113L399.513 309.497C398.536 296.788 398.278 283.521 394.577 271.253C365.877 283.511 339.109 279.5 309.511 274.287ZM280.326 86.7557C275.86 96.9769 273.768 107.551 272.062 118.501C266.336 155.232 269.198 193.44 282.883 228.141C288.25 241.751 297.963 260.729 312.277 266.855C329.147 274.077 369.583 274.639 386.734 267.56C400.614 261.831 409.598 246.542 416.565 233.989C432.361 197.633 432.552 164.2 425.972 125.836C424.387 116.598 423.206 106.322 419.782 97.5707C419.086 95.7912 418.171 94.104 417.313 92.3997C415.292 100.739 412.576 115.468 404.512 120.207Q403.894 120.567 403.24 120.855C392.797 125.504 378.789 119.734 367.805 119.714C350.732 119.684 321.415 128.221 306.393 123.457C300.97 121.737 297.683 117.666 295.226 112.728C291.218 104.672 288.089 91.9368 280.326 86.7557ZM655.718 704.239C656.174 710.096 657.018 715.908 657.121 721.79C656.654 724.474 656.248 726.91 656.309 729.646C655.5 727.961 655.42 726.832 655.447 724.975C654.902 724.278 654.988 724.165 654.087 723.918C654.607 731.056 655.035 738.237 655.889 745.344C656.925 744.827 656.464 744.959 657.659 744.779C657.947 744.736 658.236 744.704 658.524 744.667L658.99 743.352L664.485 809.147C664.847 814.072 663.827 821.519 664.952 825.877L662.181 829.649L662.614 847.105L663.106 853.183C662.972 860.836 662.975 868.522 662.55 876.163Q663.098 874.94 663.683 873.734L663.265 874.336L664.013 874.312C663.723 876.997 662.976 881.177 664.281 883.573L665.001 884C665.002 884.888 664.879 886.443 665.125 887.251C665.597 888.795 670.294 893.854 671.982 898.289C680.128 898.673 688.434 898.843 696.501 897.475C700.149 858.124 704.94 819.068 707.419 779.594C708.789 757.777 710.132 735.216 707.942 713.423C706.968 703.723 705.336 679.988 697.242 673.872C695.001 672.179 692.444 672.052 689.765 672.552C675.3 675.25 663.403 692.858 655.718 704.239ZM571.068 705.803C566.324 725.966 563.042 746.638 559.42 767.03L547.295 833.436C543.723 853.462 538.185 873.2 534.836 893.238C534.312 896.372 533.572 899.591 534.839 902.625L535.708 902.993C537.467 902.005 538.518 899.985 539.611 898.331C550.43 894.147 568.955 895.391 580.8 895.036C594.192 894.867 611.548 893.345 624.331 896.947C615.174 865.029 604.146 833.673 595.289 801.659Q590.917 785.77 587.247 769.704C585.001 759.944 575.994 711.124 571.068 705.803ZM756.523 743.459C749.341 751.114 743.176 759.657 736.22 767.507C727.945 776.847 716.176 785.239 710.378 796.4C708.329 800.346 708.424 806.754 708.569 811.105C708.637 813.136 708.717 815.164 708.933 817.186C711.172 815.753 713.256 814.584 715.737 813.592C721.157 806.299 728.923 800.417 735.343 794.008Q739.674 789.66 743.738 785.063Q747.803 780.466 751.588 775.636Q755.372 770.806 758.863 765.759Q762.355 760.713 765.54 755.468C762.914 751.185 760.509 746.64 756.523 743.459ZM317.271 958.706C310.994 959.223 305.717 959.558 300.19 963C310.603 966.648 322.439 965.546 333.235 964.332C338.797 963.344 344.242 962.146 349.674 960.58C339.458 958.987 327.524 957.24 317.271 958.706ZM544.913 922.713C540.38 923.015 534.41 922.912 530.998 926.408C530.864 927.121 530.593 927.425 531.087 928.051C533.106 930.611 539.14 930.878 542.247 931.011Q543.765 931.078 545.284 931.033Q551.9 931.001 558.437 929.988L559.431 923.047C554.593 922.683 549.761 922.342 544.913 922.713ZM373.873 956.651C386.531 957.909 413.848 958.535 425.602 954.893L424.524 953.151C413.785 953.697 402.913 952.995 392.223 953.781C386.004 954.239 379.966 955.396 373.873 956.651ZM523.918 929.728C515.587 930.216 508.841 931.077 501.342 934.983C506.969 934.751 512.681 935.472 518.287 935.934C526.481 935.673 532.485 933.862 540.246 931.374C534.809 930.71 529.402 929.858 523.918 929.728ZM238.671 916.938Q233.308 917.216 227.954 917.642L227.432 920.605C230.642 921.083 234.08 920.984 237.329 921.188C247.535 921.828 257.44 922.661 267.555 920.659L259.011 918.952C252.301 917.562 245.507 917.083 238.671 916.938ZM416.815 964.265C409.847 964.423 402.622 964.329 395.922 966.508C404.123 969.059 412.925 968.326 421.378 967.612C428.536 967.135 435.587 965.914 442.643 964.659C433.956 964.376 425.529 963.972 416.815 964.265ZM450.013 956.728C447.259 956.953 444.317 956.97 441.664 957.766L441.333 958.518C442.953 960.293 446.292 960.468 448.566 960.581C453.251 960.813 458.182 960.512 462.821 959.821C466.542 959.362 470.071 958.719 473.702 957.784C465.913 955.908 457.96 956.461 450.013 956.728ZM689.146 913.561C696.859 912.954 710.317 913.545 717.194 911.492C709.007 907.895 699.279 910.195 690.8 911.078C688.212 911.347 685.537 910.868 682.987 911.52L682.918 911.982C684.937 912.834 687.006 913.162 689.146 913.561ZM657.066 924.296C659.89 924.964 662.655 925.577 665.567 925.691C671.055 925.906 685.8 923.934 690 926.794L690.494 926.309C690.118 925.907 690.199 926.128 690.155 925.687C690.662 925.138 691.128 924.622 691.544 923.998C691.644 923.848 691.737 923.694 691.834 923.541C688.352 924.675 683.485 922.608 679.751 922.496C672.22 922.268 664.583 923.875 657.066 924.296ZM380.816 780.415C378.768 764.943 381.048 748.571 377.806 733.345C375.818 735.887 376.88 741.536 377.266 744.685C377.748 748.615 378.312 752.517 378.473 756.479C378.695 761.933 377.166 771.435 378.784 775.855C379.281 777.213 379.569 778.701 379.91 780.107L380.816 780.415ZM370.889 643.259C368.601 629.566 369.093 614.713 368.236 600.831C367.949 596.172 367.831 591.314 366.92 586.731C366.637 587.512 366.378 588.163 366.346 589.006C366.175 593.522 368.778 639.385 369.856 641.717C370.124 642.297 370.497 642.761 370.889 643.259ZM424.524 953.151L425.602 954.893C432.235 954.856 439.341 955.102 445.876 953.967C445.66 953.375 445.536 952.966 445.528 952.324C445.518 951.524 445.671 952.044 445.158 951.176L441.869 950.954C436.12 951.213 430.147 951.913 424.524 953.151ZM327.881 947.95L319.865 951.984Q327.749 952.3 335.638 952.481C338.302 952.541 340.825 952.76 343.463 953.136C339.048 951.004 332.882 947.113 327.881 947.95ZM326.912 732.292C327.244 719.37 325.965 706.43 325.505 693.51L324.765 693.856C324.013 698.434 324.782 729.602 326.508 731.829C326.634 731.991 326.778 732.138 326.912 732.292ZM469.04 594.263C470.865 586.519 471.882 577.262 472.128 569.307C467.034 574.793 467.796 585.87 468.028 592.936L469.04 594.263ZM238.671 916.938C245.507 917.083 252.301 917.562 259.011 918.952C259.842 918.75 260.197 918.598 260.968 918.145C260.326 917.076 260 917.054 258.863 916.763C253.623 915.423 239.37 913.46 234.704 916.085L234.829 916.326L238.671 916.938ZM630.95 368.466C631.263 356.868 631.066 344.907 632.691 333.408C631.446 334.726 631.082 336.018 630.786 337.797C629.731 344.14 630.379 351.117 630.203 357.55C630.072 362.369 629.439 367.301 629.582 372.112C629.604 372.833 629.767 373.401 630.054 374.057C630.47 373.69 630.253 373.935 630.606 373.244C630.594 373.116 630.576 372.989 630.57 372.86C630.505 371.439 630.793 369.886 630.95 368.466ZM441.869 950.954L445.158 951.176C445.671 952.044 445.518 951.524 445.528 952.324C445.536 952.966 445.66 953.375 445.876 953.967C450.351 953.597 455.672 953.588 459.963 952.354C460.134 950.823 459.977 950.686 461.106 949.679C459.26 949.784 457.554 950.345 455.738 950.463C451.125 950.762 446.438 950.102 441.869 950.954ZM355.556 590.237C353.741 595.456 354.818 615.414 355.571 621.563C356.552 612.707 356.934 599.01 355.556 590.237ZM633.061 420.247C632.152 428.862 632.423 437.739 632.275 446.402L633.292 446.079L633.08 447.04L632.286 447.125L632.934 447.553L632.835 447.865L632.284 447.368L632.646 448.435C633.348 447.66 633.099 448.121 633.343 447.026L632.548 446.883L632.499 446.612L633.391 446.24C633.372 445.786 633.304 445.297 633.38 444.85C634.244 437.319 634.076 427.766 633.061 420.247Z"/>
	<path d="M633.061 420.247C634.076 427.766 634.244 437.319 633.38 444.85C633.304 445.297 633.372 445.786 633.391 446.24L632.499 446.612L632.548 446.883L633.343 447.026C633.099 448.121 633.348 447.66 632.646 448.435L632.284 447.368L632.835 447.865L632.934 447.553L632.286 447.125L633.08 447.04L633.292 446.079L632.275 446.402C632.423 437.739 632.152 428.862 633.061 420.247Z"/>
	<path d="M355.556 590.237C356.934 599.01 356.552 612.707 355.571 621.563C354.818 615.414 353.741 595.456 355.556 590.237Z"/>
	<path fill="#FEFEFE" fill-opacity="0.95686275" d="M441.869 950.954C446.438 950.102 451.125 950.762 455.738 950.463C457.554 950.345 459.26 949.784 461.106 949.679C459.977 950.686 460.134 950.823 459.963 952.354C455.672 953.588 450.351 953.597 445.876 953.967C445.66 953.375 445.536 952.966 445.528 952.324C445.518 951.524 445.671 952.044 445.158 951.176L441.869 950.954Z"/>
	<path d="M630.95 368.466C630.793 369.886 630.505 371.439 630.57 372.86C630.576 372.989 630.594 373.116 630.606 373.244C630.253 373.935 630.47 373.69 630.054 374.057C629.767 373.401 629.604 372.833 629.582 372.112C629.439 367.301 630.072 362.369 630.203 357.55C630.379 351.117 629.731 344.14 630.786 337.797C631.082 336.018 631.446 334.726 632.691 333.408C631.066 344.907 631.263 356.868 630.95 368.466Z"/>
	<path fill="#FEFEFE" d="M208.363 918.807C214.71 917.911 221.533 918.017 227.954 917.642L227.432 920.605C221.282 920.507 215.789 920.704 209.724 921.855C209.43 920.8 208.84 919.794 208.363 918.807Z"/>
	<path d="M238.671 916.938L234.829 916.326L234.704 916.085C239.37 913.46 253.623 915.423 258.863 916.763C260 917.054 260.326 917.076 260.968 918.145C260.197 918.598 259.842 918.75 259.011 918.952C252.301 917.562 245.507 917.083 238.671 916.938Z"/>
	<path d="M469.04 594.263L468.028 592.936C467.796 585.87 467.034 574.793 472.128 569.307C471.882 577.262 470.865 586.519 469.04 594.263Z"/>
	<path d="M326.912 732.292C326.778 732.138 326.634 731.991 326.508 731.829C324.782 729.602 324.013 698.434 324.765 693.856L325.505 693.51C325.965 706.43 327.244 719.37 326.912 732.292Z"/>
	<path fill="#FEFEFE" fill-opacity="0.98431373" d="M424.524 953.151C430.147 951.913 436.12 951.213 441.869 950.954L445.158 951.176C445.671 952.044 445.518 951.524 445.528 952.324C445.536 952.966 445.66 953.375 445.876 953.967C439.341 955.102 432.235 954.856 425.602 954.893L424.524 953.151Z"/>
	<path d="M370.889 643.259C370.497 642.761 370.124 642.297 369.856 641.717C368.778 639.385 366.175 593.522 366.346 589.006C366.378 588.163 366.637 587.512 366.92 586.731C367.831 591.314 367.949 596.172 368.236 600.831C369.093 614.713 368.601 629.566 370.889 643.259Z"/>
	<path d="M380.816 780.415L379.91 780.107C379.569 778.701 379.281 777.213 378.784 775.855C377.166 771.435 378.695 761.933 378.473 756.479C378.312 752.517 377.748 748.615 377.266 744.685C376.88 741.536 375.818 735.887 377.806 733.345C381.048 748.571 378.768 764.943 380.816 780.415Z"/>
	<path d="M689.146 913.561C687.006 913.162 684.937 912.834 682.918 911.982L682.987 911.52C685.537 910.868 688.212 911.347 690.8 911.078C699.279 910.195 709.007 907.895 717.194 911.492C710.317 913.545 696.859 912.954 689.146 913.561Z"/>
	<path d="M587.696 861.225L588.604 861.964C590.256 865.896 589.183 869.955 588.128 873.907L587.395 873.745C587.278 873.55 587.153 873.359 587.045 873.159C585.498 870.283 586.923 864.263 587.696 861.225Z"/>
	<path d="M561.236 796.314C561.668 796.772 562.125 797.225 562.445 797.774C564.48 801.275 563.028 807.425 562.148 811.173L561.391 810.799C559.02 806.928 560.545 800.57 561.236 796.314Z"/>
	<path d="M565.059 847.793C565.461 848.24 565.841 848.657 566.145 849.179C568.266 852.818 567.927 859.005 567.028 863.021C566.717 862.666 566.398 862.316 566.116 861.938C563.174 857.999 564.341 852.294 565.059 847.793Z"/>
	<path d="M574.682 851.784C575.085 852.141 575.432 852.556 575.731 853.005C578.455 857.09 576.705 863.515 575.678 867.932Q575.344 867.414 575.028 866.885C571.986 861.757 573.24 857.166 574.682 851.784Z"/>
	<path d="M573.54 797.262C572.87 794.364 573.026 786.527 574.628 783.981C574.71 783.85 574.823 783.741 574.921 783.621C576.039 784.642 576.143 786.366 576.212 787.795C576.378 791.226 576.197 794.787 575.959 798.21C576.012 799.467 575.933 800.983 575.181 801.978L574.361 801.324C573.773 799.837 573.588 798.861 573.54 797.262ZM573.54 797.262C573.588 798.861 573.773 799.837 574.361 801.324L575.181 801.978C575.933 800.983 576.012 799.467 575.959 798.21C574.689 796.29 574.784 794.534 574.69 792.317L574.793 792.641L574.399 792.891C574.276 794.287 574.063 795.489 573.668 796.836L573.54 797.262Z"/>
	<path d="M573.54 797.262L573.668 796.836C574.063 795.489 574.276 794.287 574.399 792.891L574.793 792.641L574.69 792.317C574.784 794.534 574.689 796.29 575.959 798.21C576.012 799.467 575.933 800.983 575.181 801.978L574.361 801.324C573.773 799.837 573.588 798.861 573.54 797.262Z"/>
	<path d="M569.634 814.836C569.836 815.109 570.068 815.361 570.24 815.654C572.83 820.067 569.719 830.183 567.778 834.618C567.642 834.451 567.482 834.301 567.369 834.118C564.523 829.541 567.9 819.465 569.634 814.836Z"/>
	<path d="M565.205 768.182L566.362 768.814C569.606 773.514 567.443 782.277 566.801 787.684C566.079 787.812 565.962 787.516 565.375 787.123C563.23 781.762 564.623 773.8 565.205 768.182Z"/>
	<path d="M662.614 847.105C663.421 847.458 664.006 848.035 664.686 848.593C665.222 847.532 665.636 846.423 666.07 845.319C666.409 852.466 666.978 859.784 665.932 866.892L664.656 869.259C662.973 865.425 665.02 858.355 663.106 853.183L662.614 847.105Z"/>
	<path d="M663.106 853.183C665.02 858.355 662.973 865.425 664.656 869.259L665.932 866.892C666.101 872.116 666.609 878.959 665.001 884L664.281 883.573C662.976 881.177 663.723 876.997 664.013 874.312L663.265 874.336L663.683 873.734Q663.098 874.94 662.55 876.163C662.975 868.522 662.972 860.836 663.106 853.183Z"/>
	<path d="M657.121 721.79C657.77 728.97 657.757 736.241 658.99 743.352L658.524 744.667C658.236 744.704 657.947 744.736 657.659 744.779C656.464 744.959 656.925 744.827 655.889 745.344C655.035 738.237 654.607 731.056 654.087 723.918C654.988 724.165 654.902 724.278 655.447 724.975C655.42 726.832 655.5 727.961 656.309 729.646C656.248 726.91 656.654 724.474 657.121 721.79Z"/>
	<path fill="#2A2829" d="M662.181 829.649L664.952 825.877C665.476 832.125 666.615 839.075 666.07 845.319C665.636 846.423 665.222 847.532 664.686 848.593C664.006 848.035 663.421 847.458 662.614 847.105L662.181 829.649Z"/>
	<path d="M302.694 204.535C303.456 204.762 304.1 205.02 304.822 205.343L304.856 206.036C303.064 207.135 300.99 207.334 298.952 207.708C298.222 207.586 297.619 207.41 296.932 207.135L297.228 206.395C299.015 205.471 300.747 205.017 302.694 204.535Z"/>
	<path d="M397.934 202.812C402.517 202.439 406.605 202.345 410.426 205.289C407.678 205.466 404.539 205.914 401.822 205.443C399.872 205.105 399.049 204.386 397.934 202.812Z"/>
	<path d="M393.207 212.5C393.893 212.483 394.57 212.474 395.257 212.492C400.194 212.619 402.946 213.532 406.344 217.148C401.389 216.881 397.242 215.349 393.207 212.5Z"/>
	<path d="M354.986 222.959C358.54 221.638 366.989 216.886 370.219 217.362L370.318 217.965C366.986 222.051 360.622 224.063 355.639 224.826L354.986 222.959Z"/>
	<path d="M380.364 166.874C381.457 167.242 382.671 167.717 383.615 168.393C385.084 169.445 386.023 171.286 386.183 173.066C386.531 176.951 384.3 180.176 382.066 183.086C379.332 181.546 377.733 179.416 375.987 176.89C376.864 173.013 378.023 170.126 380.364 166.874Z"/>
	<path d="M321.266 168.836C322.036 169.039 322.766 169.222 323.448 169.652C325.908 171.205 326.362 174.116 327.022 176.727C326.226 180.384 325.197 182.458 322.678 185.235C321.406 184.855 320.34 184.481 319.296 183.631C317.793 182.408 316.953 180.558 316.863 178.637C316.68 174.721 318.727 171.595 321.266 168.836Z"/>
	<path d="M351.884 207.95C349.041 206.029 345.248 203.764 343.887 200.489C343.369 199.242 343.283 197.979 343.955 196.756C344.921 194.999 346.984 194 348.858 193.554C351.603 192.902 355.052 193.203 357.402 194.877C358.721 195.816 359.364 197.033 359.534 198.624C359.931 202.363 356.279 206.103 354.107 208.767C354.566 213.469 355.222 218.231 354.986 222.959L355.639 224.826C354.983 224.935 354.346 225 353.68 225.008C347.082 225.079 338.817 224.542 333.861 219.558C333.097 218.79 332.581 218.486 332.565 217.388C337.22 217.065 342.256 220.971 346.697 222.2C348.457 222.687 350.522 222.766 352.338 223.03L351.884 207.95Z"/>
	<path d="M333.227 433.304C333.705 433.651 334.201 433.97 334.575 434.442C336.619 437.022 335.51 444.192 335.325 447.432L334.887 446.898C331.642 442.859 332.66 438.05 333.227 433.304Z"/>
	<path d="M328.191 354.187C328.791 354.47 329.245 354.777 329.706 355.273C332.164 357.916 331.107 365.03 330.583 368.33L329.885 368.359L328.998 367.529C327.601 363.399 328.087 358.48 328.191 354.187Z"/>
	<path d="M321.58 417.2C322.125 417.576 322.241 417.6 322.664 418.124C325.293 421.379 323.404 427.89 322.778 431.701C322.247 431.172 322.105 431.07 321.636 430.402C319.329 427.119 320.88 420.875 321.58 417.2Z"/>
	<defs>
		<linearGradient id="gradient_1" gradientUnits="userSpaceOnUse" x1="461.25668" y1="716.71692" x2="459.12982" y2="715.08044">
			<stop offset="0" stop-color="black" stop-opacity="0.96862745"/>
			<stop offset="1" stop-color="#010000"/>
		</linearGradient>
	</defs>
	<path fill="url(#gradient_1)" d="M460.451 711.705C462.119 712.439 463.344 712.954 465.181 712.973C460.109 722.668 456.767 732.417 452.868 742.564C451.194 735.882 459.469 726.105 458.132 720.986L456.452 721.483C457.612 718.163 459.071 714.939 460.451 711.705Z"/>
	<path fill="#2A2829" d="M494.407 744.686C495.615 744.14 496.539 743.77 497.868 743.577C498.658 742.352 498.073 741.341 499.01 740.301C499.986 740.785 499.652 740.416 500.045 741.566C500.754 743.638 501.165 746.411 501.075 748.596L500.514 748.924C499.702 749.388 500.033 749.219 499.159 749.578C496.085 755.021 497.768 767.855 497.588 774.371C496.36 774.692 495.75 774.728 494.52 774.403L494.407 744.686Z"/>
	<path d="M494.52 774.403C495.75 774.728 496.36 774.692 497.588 774.371C497.277 788.585 497.076 802.813 495.961 816.992C495.306 825.317 493.865 833.552 493.245 841.873C492.622 850.241 493.397 862.243 490.598 869.869C489.477 866.142 490.966 860.189 491.122 856.196C487.979 866.243 485.332 876.687 481.664 886.531C478.909 893.925 474.95 900.843 472.735 908.437L471.938 911.072C471.779 909.545 471.903 908.017 471.842 906.486C471.771 904.722 472.043 903.709 470.727 902.502C473.537 892.032 478.841 881.372 481.831 870.467C490.399 839.211 492.949 806.659 494.52 774.403Z"/>
	<path d="M562.404 299.833C563.696 299.417 564.077 298.776 564.882 297.745C564.193 302.85 564.518 306.962 565.392 312.028L564.66 311.711C564.263 310.833 564.103 310.338 563.361 309.698L561.997 310.43Q562.256 305.134 562.404 299.833Z"/>
	<path d="M646.943 645.571L647.325 642.425L648.147 641.974L647.705 641L647.694 641.031C648.232 641.514 648.398 642.901 648.598 643.624L649.497 644.078C649.982 648.925 650.044 653.876 651.035 658.647L649.793 658.418C649.368 659.263 648.982 660.12 648.437 660.895C647.588 655.933 647.238 650.601 646.943 645.571Z"/>
	<path d="M647.037 617.309C647.861 622.714 648.048 628.247 648.506 633.694C648.795 637.13 649.434 640.643 649.497 644.078L648.598 643.624C648.398 642.901 648.232 641.514 647.694 641.031L647.705 641L648.147 641.974L647.325 642.425L646.943 645.571C645.651 640.01 645.803 633.268 645.178 627.508L646.062 627.254C647.209 624.019 645.823 620.627 647.037 617.309Z"/>
	<path d="M490.941 710.291C491.847 711.231 492.446 711.836 492.827 713.102C493.19 714.305 493.657 715.354 494.21 716.481C493.743 713.014 492.746 710.491 493.804 706.977C493.849 706.825 493.899 706.675 493.946 706.524C495.902 713.369 495.585 720.637 496.988 727.577L496.455 728.374C495.056 728.465 494.997 728.443 493.944 729.356C493.243 722.939 492.401 716.584 490.941 710.291Z"/>
	<path d="M651.035 658.647L651.247 662.598C652.076 667.975 651.658 673.596 653.005 678.88C651.928 679.949 651.216 680.945 650.455 682.255C649.677 677.941 649.49 673.411 648.937 669.043L648.935 667.139C648.484 665.077 648.499 662.996 648.437 660.895C648.982 660.12 649.368 659.263 649.793 658.418L651.035 658.647ZM651.035 658.647L649.793 658.418C649.368 659.263 648.982 660.12 648.437 660.895C648.499 662.996 648.484 665.077 648.935 667.139C649.408 665.571 649.624 663.883 650.002 662.281L650.255 663.028L651.247 662.598L651.035 658.647ZM648.935 667.139L648.937 669.043L650.19 669.238C651.09 667.392 650.449 665.069 650.255 663.028L650.002 662.281C649.624 663.883 649.408 665.571 648.935 667.139Z"/>
	<path d="M648.935 667.139C649.408 665.571 649.624 663.883 650.002 662.281L650.255 663.028C650.449 665.069 651.09 667.392 650.19 669.238L648.937 669.043L648.935 667.139Z"/>
	<path d="M651.035 658.647L651.247 662.598L650.255 663.028L650.002 662.281C649.624 663.883 649.408 665.571 648.935 667.139C648.484 665.077 648.499 662.996 648.437 660.895C648.982 660.12 649.368 659.263 649.793 658.418L651.035 658.647Z"/>
	<path d="M631.694 459.521L632.901 459.763C633.885 457.992 633.023 455.643 633.573 453.636C633.657 453.329 633.754 453.026 633.844 452.721C635.258 459.414 636.094 467.048 635.453 473.873L634.495 474.366C633.992 476.427 634.883 479.125 633.97 480.826L633.179 481.002Q632.502 470.257 631.694 459.521Z"/>
	<path d="M633.179 481.002L633.97 480.826C634.883 479.125 633.992 476.427 634.495 474.366L635.453 473.873C635.601 479.898 635.73 485.978 636.211 491.986C636.589 496.695 637.42 501.393 637.472 506.12C637.307 506.035 637.14 505.954 636.976 505.866C636.231 505.466 636.509 505.637 635.817 505.041C635.683 506.631 635.578 507.993 634.954 509.489C633.395 501.635 633.61 489.28 633.179 481.002Z"/>
	<path d="M502.42 821.093L504.044 819.301C504.08 834.092 501.344 849.429 498.529 863.911Q496.571 873.627 493.537 883.063C492.335 886.87 490.706 890.851 489.969 894.765C489.712 896.133 489.972 897.437 490.217 898.789C489.388 898.442 489.053 898.274 488.496 897.527C487.875 896.694 487.649 896.787 486.677 896.456C492.052 881.209 496.818 866.064 499.11 850.011C500.48 840.416 500.819 830.644 502.42 821.093Z"/>
	<path d="M496.988 727.577L497.078 728.285C498.062 735.503 501.562 742.177 502.733 749.479C504.135 758.221 506.693 814.344 504.044 819.301L502.42 821.093C502.527 797.149 505.2 772.303 501.075 748.596C501.165 746.411 500.754 743.638 500.045 741.566C499.652 740.416 499.986 740.785 499.01 740.301C498.073 741.341 498.658 742.352 497.868 743.577C496.539 743.77 495.615 744.14 494.407 744.686C494.378 739.557 494.252 734.477 493.944 729.356C494.997 728.443 495.056 728.465 496.455 728.374L496.988 727.577Z"/>
	<path d="M658.99 743.352L664.485 809.147C664.847 814.072 663.827 821.519 664.952 825.877L662.181 829.649C662.044 825.884 661.837 822.109 662.05 818.344C662.556 817.964 663.196 817.527 663.5 816.953C664.109 815.803 663.934 813.93 663.423 812.801Q662.746 816.614 662.193 820.447C660.56 810.206 660.191 799.552 659.389 789.217C658.256 774.594 656.898 759.975 655.889 745.344C656.925 744.827 656.464 744.959 657.659 744.779C657.947 744.736 658.236 744.704 658.524 744.667L658.99 743.352Z"/>
	<path d="M460.451 711.705C463.039 706.399 465.699 701.024 469.279 696.303C472.143 692.528 476.654 687.798 481.6 687.317C483.457 687.137 485.147 687.824 486.492 689.081C490.327 692.666 493.726 701.335 493.946 706.524C493.899 706.675 493.849 706.825 493.804 706.977C492.746 710.491 493.743 713.014 494.21 716.481C493.657 715.354 493.19 714.305 492.827 713.102C492.446 711.836 491.847 711.231 490.941 710.291C489.552 705.615 487.851 697.63 483.302 694.957C482.122 694.263 480.862 694.077 479.544 694.457C473.48 696.208 468.194 707.717 465.181 712.973C463.344 712.954 462.119 712.439 460.451 711.705Z"/>
	<path d="M523.975 242.545C527.647 242.751 529.962 243.348 533.147 245.218C535.23 248.414 536.628 251.763 535.787 255.654C534.951 259.522 532.195 261.911 528.968 263.885C527.796 264.095 526.564 264.357 525.37 264.329C523.495 264.285 521.524 263.447 520.238 262.076C518.187 259.889 517.704 256.618 517.96 253.736C518.392 248.878 520.341 245.653 523.975 242.545Z"/>
	<path d="M601.283 240.496C601.706 240.553 602.122 240.663 602.533 240.779C605.013 241.48 607.145 243.287 608.328 245.565C610.05 248.88 610.026 253.314 608.772 256.778C607.308 260.821 605.125 262.611 601.284 264.311C597.618 263.009 594.518 260.922 592.868 257.275Q592.63 256.748 592.445 256.2Q592.26 255.652 592.13 255.088Q592 254.524 591.927 253.951Q591.853 253.377 591.837 252.799Q591.82 252.22 591.861 251.643Q591.902 251.066 592 250.496Q592.098 249.926 592.251 249.368Q592.405 248.811 592.613 248.271C594.32 243.896 597.243 242.288 601.283 240.496Z"/>
	<path d="M565.392 312.028C565.783 312.464 566.202 312.974 566.663 313.343C568.58 314.877 570.662 314.891 572.995 314.715C581.971 314.041 595.116 308.086 600.352 300.577C602.949 296.854 604.49 292.446 607.505 289.001C607.619 288.871 607.738 288.746 607.854 288.619C607.593 290.466 607.321 292.319 606.851 294.127C604.86 301.802 599.212 307.266 592.519 311.046C579.249 318.541 560.764 319.343 546.317 315.166C538.644 312.948 523.796 303.733 520.141 296.454C519.425 295.028 519.341 293.944 519.879 292.419C522.692 291.067 529.363 300.736 531.719 302.767C539.775 309.712 551.304 312.929 561.472 315.004L561.997 310.43L563.361 309.698C564.103 310.338 564.263 310.833 564.66 311.711L565.392 312.028Z"/>
	<path d="M634.954 509.489C635.578 507.993 635.683 506.631 635.817 505.041C636.509 505.637 636.231 505.466 636.976 505.866C637.14 505.954 637.307 506.035 637.472 506.12C639.626 524.853 640.562 543.76 642.423 562.533C643.802 576.453 645.139 590.324 646.149 604.278C646.444 608.352 647.403 613.296 647.037 617.309C645.823 620.627 647.209 624.019 646.062 627.254L645.178 627.508C642.951 606.815 641.582 586.015 639.515 565.302C638.315 553.267 637.486 541.307 636.522 529.266C635.998 522.729 634.876 516.034 634.954 509.489Z"/>
	<path d="M562.249 287.367C557.431 285.493 551.985 283.659 548.785 279.318C547.436 277.488 546.664 275.219 547.138 272.944C547.707 270.212 549.848 268.141 552.149 266.744C557.8 263.313 567.635 261.713 574.029 263.405C578.796 264.667 581.204 266.964 583.64 271.132C579.499 279.399 573.773 283.348 565.635 287.148C565.273 290.666 565.109 294.215 564.882 297.745C564.077 298.776 563.696 299.417 562.404 299.833L562.249 287.367Z"/>
</svg>
